<svg xmlns="http://www.w3.org/2000/svg" width="3468" height="20.986in">
    <defs>
        <linearGradient id="a" x1="50%" x2="0%" y1="86.603%" y2="0%">
            <stop offset="0%" stop-color="#3023AE"/>
            <stop offset="99%" stop-color="#C96DD8"/>
        </linearGradient>
    </defs>
    <path fill="#26AA5D" fill-rule="evenodd" d="M340 1255.001s29.232-2.31 88-37.001c95.905-56.614 142.328-107.977 224-109 132.719-1.238 297.598 244.84 544 54 137.023-112.049 200.205-194.407 358 4.001 64.86 81.552 159.938 68.39 217-22 75.742-119.984 67.436 56.926 205-96.001 64.761-71.994 145 5.999 145 5.999s89.367 88.985 139 52.001V255H340v1000.001z"/>
    <path fill="url(#a)" d="M340 1255.001s29.232-2.31 88-37.001c95.905-56.614 142.328-107.977 224-109 132.719-1.238 297.598 244.84 544 54 137.023-112.049 200.205-194.407 358 4.001 64.86 81.552 159.938 68.39 217-22 75.742-119.984 67.436 56.926 205-96.001 64.761-71.994 145 5.999 145 5.999s89.367 88.985 139 52.001V255H340v1000.001z"/>
    <path fill="#FFF" fill-rule="evenodd" d="M2062.662.005l538.327 538.326-784.662 784.662L1278 784.666 2062.662.005z" opacity=".051"/>
    <path fill="#FFF" fill-rule="evenodd" d="M538.338 1510.996L.011 972.669l784.662-784.662L1323 726.335l-784.662 784.661z" opacity=".102"/>
</svg>
