<?xml version="1.0" encoding="UTF-8"?>
<svg width="1920px" height="1000px" viewBox="0 0 1920 1000" version="1.1" xmlns="http://www.w3.org/2000/svg" xmlns:xlink="http://www.w3.org/1999/xlink">
    <!-- Generator: Sketch 52.5 (67469) - http://www.bohemiancoding.com/sketch -->
    <title>bg</title>
    <desc>Created with Sketch.</desc>
    <defs>
        <rect id="path-1" x="0" y="0" width="1920" height="1000"></rect>
        <linearGradient x1="50%" y1="86.603%" x2="0%" y2="0%" id="linearGradient-3">
            <stop stop-color="#3023AE" offset="0%"></stop>
            <stop stop-color="#C96DD8" offset="99%"></stop>
        </linearGradient>
        <linearGradient x1="92.015723%" y1="13.9477712%" x2="-2.33273783%" y2="90.0173204%" id="linearGradient-4">
            <stop stop-color="#F7F8FF" offset="0%"></stop>
            <stop stop-color="#ECEFFF" stop-opacity="0" offset="100%"></stop>
        </linearGradient>
    </defs>
    <g id="Page-1" stroke="none" stroke-width="1" fill="none" fill-rule="evenodd">
        <g id="bg">
            <mask id="mask-2" fill="white">
                <use xlink:href="#path-1"></use>
            </mask>
            <g id="Mask" fill-rule="nonzero"></g>
            <g mask="url(#mask-2)">
                <g transform="translate(-340.000000, -255.000000)">
                    <path d="M340,1255 C340,1255 369.232,1252.691 428,1217.999 C523.905,1161.386 570.328,1110.023 652,1109 C784.719,1107.762 949.598,1353.84 1196,1163 C1333.023,1050.951 1396.205,968.593 1554,1167.001 C1618.86,1248.553 1713.938,1235.391 1771,1145.001 C1846.742,1025.018 1838.436,1201.927 1976,1049 C2040.761,977.006 2121,1054.999 2121,1054.999 C2121,1054.999 2210.366,1143.984 2260,1107 L2260,255 L340,255 L340,1255 Z" id="Path" fill="#26AA5D"></path>
                    <path d="M340,1255 C340,1255 369.232,1252.691 428,1217.999 C523.905,1161.386 570.328,1110.023 652,1109 C784.719,1107.762 949.598,1353.84 1196,1163 C1333.023,1050.951 1396.205,968.593 1554,1167.001 C1618.86,1248.553 1713.938,1235.391 1771,1145.001 C1846.742,1025.018 1838.436,1201.927 1976,1049 C2040.761,977.006 2121,1054.999 2121,1054.999 C2121,1054.999 2210.366,1143.984 2260,1107 L2260,255 L340,255 L340,1255 Z" id="Path" fill="url(#linearGradient-3)"></path>
                    <path d="M2062.662,0.005 L2600.989,538.331 L1816.327,1322.993 L1278,784.666 L2062.662,0.005 Z M538.338,1510.995 L0.011,972.669 L784.673,188.007 L1323,726.335 L538.338,1510.995 Z" id="Combined-Shape" fill="url(#linearGradient-4)" opacity="0.051"></path>
                </g>
            </g>
        </g>
    </g>
</svg>